# xmcd
#
# Track frame offsets: 
#        150
#        21730
#        40497
#        60020
#        75016
#        100732
#        125366
#        137824
#        151005
#        164146
#        178459
#        196450
#        208855
#        226880
#        236344
#        253858
#        276944
#
# Disc length: 3861 seconds
#
# Revision: 0
# Processed by: cddbd v1.5.2PL0 Copyright (c) Steve Scherf et al.
# Submitted via: ExactAudioCopy v0.95b4
#
DISCID=eb0f1311
DTITLE=Various Artist - This Is... Soul! CD2
DYEAR=2007
DGENRE=Soul
TTITLE0=Barry White - Just The Way You Are
TTITLE1=The Floaters - Float On
TTITLE2=Rene And Angela - Your Smile
TTITLE3=Michael Jackson - Got To Be There
TTITLE4=Peaches And Herb - Reunited
TTITLE5=Atlantic Starr - Secret Lovers
TTITLE6=The Four Tops - Baby, I Need Your Lovin'
TTITLE7=The Temptations - My Girl
TTITLE8=Mary J Blige - (You Make Me Feel Like) A Natural Woman
TTITLE9=Marvin Gaye - I Heard It Through The Grapevine
TTITLE10=Commodores - Lady (You Bring Me Up)
TTITLE11=Smokey Robinson and The Miracles - Mickey's Monkey
TTITLE12=The Commitments - Mustang Sally
TTITLE13=James Brown - Papa's Got A Brand New Bag
TTITLE14=Donna Summer - Bad Girls
TTITLE15=Blackstreet - No Diggity
TTITLE16=James Brown - It's A Man's, Man's, Man's World
EXTD=
EXTT0=
EXTT1=
EXTT2=
EXTT3=
EXTT4=
EXTT5=
EXTT6=
EXTT7=
EXTT8=
EXTT9=
EXTT10=
EXTT11=
EXTT12=
EXTT13=
EXTT14=
EXTT15=
EXTT16=
PLAYORDER=
